<svg xmlns="http://www.w3.org/2000/svg" width="35" height="34" viewBox="0 0 35 34">
    <path fill="#3C117F" fill-rule="evenodd" d="M9.052 6.8h5.562c.61-.045 1.156-.4 1.448-.944l2.693-4.724A2.263 2.263 0 0 1 20.715 0h14.207l-3.26 5.712A2.115 2.115 0 0 1 29.817 6.8H16.455a1.907 1.907 0 0 0-1.48.938l-2.776 4.866a2.058 2.058 0 0 0 0 1.972l2.474 4.3a1.01 1.01 0 0 1-.005 1.005.989.989 0 0 1-.865.495H8.858a1.916 1.916 0 0 1-1.648-.955l-2.73-4.763a2.105 2.105 0 0 1-.016-2.1L7.11 7.934A2.233 2.233 0 0 1 9.052 6.8zm18.652 7.73l2.72 4.782a2.11 2.11 0 0 1 .02 2.086l-2.635 4.624a2.23 2.23 0 0 1-1.941 1.137h-5.57a1.795 1.795 0 0 0-1.438.936L16.167 32.8a2.345 2.345 0 0 1-2.005 1.132L0 33.948l3.255-5.7a2.123 2.123 0 0 1 1.844-1.089h13.384a1.91 1.91 0 0 0 1.456-.94l2.77-4.878a2.053 2.053 0 0 0 0-1.972l-2.45-4.306c-.172-.31-.168-.69.01-.997a.986.986 0 0 1 .86-.49h4.927a1.919 1.919 0 0 1 1.648.954z"/>
</svg>
